<?xml version="1.0" standalone="no"?>
<!DOCTYPE svg PUBLIC "-//W3C//DTD SVG 20010904//EN"
 "http://www.w3.org/TR/2001/REC-SVG-20010904/DTD/svg10.dtd">
<svg version="1.0" xmlns="http://www.w3.org/2000/svg"
 width="1358.000000pt" height="1358.000000pt" viewBox="0 0 1358.000000 1358.000000"
 preserveAspectRatio="xMidYMid meet">
<metadata>
Created by potrace 1.14, written by Peter Selinger 2001-2017
</metadata>
<g transform="translate(0.000000,1358.000000) scale(0.100000,-0.100000)"
fill="#000000" stroke="none">
<path d="M11040 13130 c-201 -160 -390 -310 -420 -335 -30 -24 -66 -53 -80
-64 -100 -79 -349 -276 -365 -289 -11 -10 -83 -67 -160 -128 -363 -288 -562
-447 -580 -462 -11 -9 -61 -48 -110 -87 -50 -38 -99 -77 -110 -87 -11 -9 -148
-119 -305 -243 -157 -124 -292 -231 -300 -238 -26 -21 -580 -462 -849 -675
-141 -112 -276 -220 -300 -240 -24 -21 -54 -44 -65 -52 -12 -8 -30 -22 -41
-31 -11 -10 -135 -109 -275 -220 -140 -111 -372 -296 -515 -410 -263 -209
-590 -469 -659 -524 -106 -84 -164 -130 -196 -155 -19 -16 -150 -120 -290
-231 -140 -112 -388 -309 -551 -438 -162 -130 -313 -249 -333 -266 -68 -54
-448 -356 -552 -439 -56 -45 -119 -94 -139 -111 -195 -154 -404 -320 -420
-333 -11 -10 -48 -39 -83 -66 -34 -27 -61 -50 -59 -52 1 -2 14 -5 27 -8 14 -2
59 -14 100 -25 99 -26 389 -102 620 -161 102 -27 228 -60 280 -74 52 -13 185
-48 295 -76 110 -29 207 -54 215 -56 8 -2 44 -11 80 -20 36 -8 69 -19 73 -24
5 -4 -8 -21 -29 -36 -75 -57 -279 -254 -385 -370 -196 -217 -409 -539 -550
-833 -117 -244 -239 -604 -274 -810 -3 -19 -8 -38 -11 -42 -3 -5 -7 -25 -10
-45 -2 -21 -6 -49 -9 -63 -10 -63 -28 -182 -30 -211 -14 -168 -18 -249 -19
-380 0 -144 9 -351 18 -410 3 -14 7 -50 10 -80 14 -120 55 -326 97 -485 101
-373 260 -728 477 -1060 46 -71 94 -142 106 -156 11 -15 30 -39 41 -55 11 -15
63 -80 116 -144 446 -535 1041 -933 1716 -1146 l101 -32 -35 77 c-44 95 -100
231 -124 296 -9 28 -29 82 -44 120 -39 106 -120 381 -140 475 -2 8 -12 56 -24
105 -11 50 -25 117 -31 150 -5 33 -12 71 -15 85 -3 13 -7 42 -10 65 -25 187
-28 210 -40 330 -28 300 -20 748 20 1025 2 14 6 48 10 75 3 28 7 64 10 80 7
58 56 311 70 365 8 30 16 66 19 80 43 206 189 638 298 880 64 141 177 364 253
495 76 133 298 475 328 508 7 6 37 46 68 87 56 74 76 98 153 189 110 130 163
188 296 322 80 80 170 167 200 195 31 27 74 65 95 85 78 69 252 207 364 289
104 75 396 270 405 270 2 0 50 27 105 60 56 33 104 60 107 60 3 0 24 13 47 29
23 15 98 61 167 101 69 40 163 95 210 123 47 27 99 57 115 67 17 9 233 136
480 282 248 145 484 284 525 309 41 24 87 50 101 59 14 8 54 31 87 50 34 19
62 38 62 42 0 9 -18 14 -550 152 -245 64 -497 129 -560 146 -63 17 -185 48
-270 70 -85 22 -171 44 -190 50 -44 13 -540 141 -682 177 -60 15 -108 31 -108
36 0 5 179 268 397 585 383 558 493 717 609 887 30 44 89 130 131 190 41 61
105 153 141 205 36 52 89 129 117 170 29 41 97 140 152 220 55 80 166 242 248
360 82 118 188 274 237 345 49 72 119 173 155 225 73 106 128 185 392 570 256
372 279 405 403 585 179 258 319 465 316 465 -2 0 -168 -131 -368 -290z"/>
</g>
</svg>
